<mxfile host="65bd71144e">
    <diagram id="dfkNSu6pE5_nEDPeBM3w" name="Page-1">
        <mxGraphModel dx="1204" dy="798" grid="1" gridSize="10" guides="1" tooltips="1" connect="1" arrows="1" fold="1" page="1" pageScale="1" pageWidth="827" pageHeight="1169" math="0" shadow="0">
            <root>
                <mxCell id="0"/>
                <mxCell id="1" parent="0"/>
                <mxCell id="42" value="" style="group" vertex="1" connectable="0" parent="1">
                    <mxGeometry x="80" y="90" width="700" height="1030" as="geometry"/>
                </mxCell>
                <mxCell id="2" value="&lt;font style=&quot;font-size: 14px&quot;&gt;boxes&lt;/font&gt;" style="shape=parallelogram;perimeter=parallelogramPerimeter;whiteSpace=wrap;html=1;fixedSize=1;" vertex="1" parent="42">
                    <mxGeometry x="236.85177379697927" y="3.296" width="107.6923076923077" height="49.43999999999999" as="geometry"/>
                </mxCell>
                <mxCell id="6" value="" style="edgeStyle=none;html=1;fontSize=14;" edge="1" parent="42" target="5">
                    <mxGeometry relative="1" as="geometry">
                        <mxPoint x="287.17948717948707" y="53.559999999999995" as="sourcePoint"/>
                    </mxGeometry>
                </mxCell>
                <mxCell id="10" value="UpdateSmallObject()" style="swimlane;fontSize=14;" vertex="1" parent="42">
                    <mxGeometry x="-1.9220338983050849" y="90.64" width="583.2779661016949" height="752.0872727272726" as="geometry"/>
                </mxCell>
                <mxCell id="13" value="" style="edgeStyle=none;html=1;fontSize=14;" edge="1" parent="10" source="9" target="12">
                    <mxGeometry relative="1" as="geometry"/>
                </mxCell>
                <mxCell id="9" value="&lt;pre style=&quot;background-color: rgb(43 , 43 , 43) ; color: rgb(169 , 183 , 198) ; font-family: &amp;#34;jetbrains mono&amp;#34; , monospace&quot;&gt;&lt;font style=&quot;font-size: 14px&quot;&gt;boxesSmallObject&lt;/font&gt;&lt;/pre&gt;" style="shape=parallelogram;perimeter=parallelogramPerimeter;whiteSpace=wrap;html=1;fixedSize=1;fontSize=14;" vertex="1" parent="10">
                    <mxGeometry x="221.79747102212852" y="164.8" width="134.6153846153846" height="65.92" as="geometry"/>
                </mxCell>
                <mxCell id="12" value="&lt;pre style=&quot;background-color: rgb(43 , 43 , 43) ; color: rgb(169 , 183 , 198) ; font-family: &amp;#34;jetbrains mono&amp;#34; , monospace&quot;&gt;&lt;font style=&quot;font-size: 14px&quot;&gt;BoxesSmallObjectsIOU()&lt;/font&gt;&lt;/pre&gt;" style="whiteSpace=wrap;html=1;fontSize=14;" vertex="1" parent="10">
                    <mxGeometry x="201.1557077625571" y="267.79999999999995" width="179.48717948717947" height="49.43999999999999" as="geometry"/>
                </mxCell>
                <mxCell id="5" value="&lt;pre style=&quot;background-color: rgb(43 , 43 , 43) ; color: rgb(169 , 183 , 198) ; font-family: &amp;#34;jetbrains mono&amp;#34; , monospace&quot;&gt;&lt;span style=&quot;color: rgb(255 , 198 , 109)&quot;&gt;&lt;font style=&quot;font-size: 14px&quot;&gt;FilterObject()&lt;/font&gt;&lt;/span&gt;&lt;/pre&gt;" style="whiteSpace=wrap;html=1;" vertex="1" parent="10">
                    <mxGeometry x="221.7991921320688" y="57.67999999999999" width="134.61538461538458" height="49.43999999999999" as="geometry"/>
                </mxCell>
                <mxCell id="49" value="" style="endArrow=classic;html=1;fontSize=14;exitX=0.5;exitY=1;exitDx=0;exitDy=0;entryX=0.5;entryY=0;entryDx=0;entryDy=0;" edge="1" parent="10" source="12">
                    <mxGeometry width="50" height="50" relative="1" as="geometry">
                        <mxPoint x="299.17808219178073" y="354.31999999999994" as="sourcePoint"/>
                        <mxPoint x="290.90003512469264" y="362.56" as="targetPoint"/>
                    </mxGeometry>
                </mxCell>
                <mxCell id="50" value="&lt;font style=&quot;font-size: 14px&quot;&gt;binds&lt;/font&gt;" style="shape=parallelogram;perimeter=parallelogramPerimeter;whiteSpace=wrap;html=1;fixedSize=1;fontSize=14;" vertex="1" parent="10">
                    <mxGeometry x="233.36849315068488" y="362.56" width="115.06849315068492" height="49.43999999999999" as="geometry"/>
                </mxCell>
                <mxCell id="54" value="" style="edgeStyle=none;html=1;fontSize=14;" edge="1" parent="10" source="52" target="53">
                    <mxGeometry relative="1" as="geometry"/>
                </mxCell>
                <mxCell id="52" value="&lt;pre style=&quot;background-color: rgb(43 , 43 , 43) ; color: rgb(169 , 183 , 198) ; font-family: &amp;#34;jetbrains mono&amp;#34; , monospace&quot;&gt;&lt;font style=&quot;font-size: 14px&quot;&gt;UpdateSmallBoxByBinds()&lt;/font&gt;&lt;/pre&gt;" style="rounded=0;whiteSpace=wrap;html=1;fontSize=14;" vertex="1" parent="10">
                    <mxGeometry x="190.93698630136979" y="461.43999999999994" width="199.931506849315" height="49.43999999999999" as="geometry"/>
                </mxCell>
                <mxCell id="51" value="" style="endArrow=classic;html=1;fontSize=14;exitX=0.5;exitY=1;exitDx=0;exitDy=0;" edge="1" parent="10" source="50" target="52">
                    <mxGeometry width="50" height="50" relative="1" as="geometry">
                        <mxPoint x="299.17808219178073" y="354.31999999999994" as="sourcePoint"/>
                        <mxPoint x="290.5479452054794" y="469.67999999999995" as="targetPoint"/>
                    </mxGeometry>
                </mxCell>
                <mxCell id="56" value="" style="edgeStyle=none;html=1;fontSize=14;" edge="1" parent="10" source="53" target="55">
                    <mxGeometry relative="1" as="geometry"/>
                </mxCell>
                <mxCell id="53" value="&lt;pre style=&quot;background-color: rgb(43 , 43 , 43) ; color: rgb(169 , 183 , 198) ; font-family: &amp;#34;jetbrains mono&amp;#34; , monospace&quot;&gt;&lt;font style=&quot;font-size: 14px&quot;&gt;RemoveSmallObject()&lt;/font&gt;&lt;/pre&gt;" style="whiteSpace=wrap;html=1;fontSize=14;rounded=0;" vertex="1" parent="10">
                    <mxGeometry x="177.44520547945203" y="576.8" width="226.90547945205475" height="41.2" as="geometry"/>
                </mxCell>
                <mxCell id="55" value="&lt;font style=&quot;font-size: 14px&quot;&gt;end&lt;/font&gt;" style="ellipse;whiteSpace=wrap;html=1;fontSize=14;rounded=0;" vertex="1" parent="10">
                    <mxGeometry x="233.36369863013695" y="679.8" width="115.06849315068492" height="49.43999999999999" as="geometry"/>
                </mxCell>
                <mxCell id="57" value="" style="endArrow=classic;html=1;fontSize=14;exitX=0.5;exitY=1;exitDx=0;exitDy=0;entryX=0.5;entryY=0;entryDx=0;entryDy=0;" edge="1" parent="10" source="5" target="9">
                    <mxGeometry width="50" height="50" relative="1" as="geometry">
                        <mxPoint x="311.9220338983051" y="169.36" as="sourcePoint"/>
                        <mxPoint x="361.9220338983051" y="119.36000000000001" as="targetPoint"/>
                    </mxGeometry>
                </mxCell>
            </root>
        </mxGraphModel>
    </diagram>
</mxfile>